<svg width="18" height="18" viewBox="0 0 18 18" fill="none" xmlns="http://www.w3.org/2000/svg">
<path d="M8.59261 13.5C9.3428 13.5 9.4517 11.7 9.4517 11.7V7.0722C10.9302 6.6699 12.029 5.2722 12.029 3.6C12.029 1.6146 10.4878 0 8.59261 0C6.69746 0 5.15625 1.6146 5.15625 3.6C5.15625 5.2722 6.25503 6.6699 7.73352 7.0722V11.7C7.73352 11.7 7.84242 13.5 8.59261 13.5Z" fill="#0053F5"/>
<rect x="6.54688" y="1.48047" width="2.45455" height="2.45455" rx="1.22727" fill="#D9D9D9"/>
<path d="M12.2566 7.70671L11.7988 9.44191C14.0247 10.0863 15.4636 11.3256 15.4636 12.6C15.4636 14.3028 12.6415 16.2 8.59091 16.2C4.5403 16.2 1.71818 14.3028 1.71818 12.6C1.71818 11.3256 3.15716 10.0863 5.38392 9.44101L4.92603 7.70581C1.88742 8.58601 0 10.4607 0 12.6C0 15.6276 3.77399 18 8.59091 18C13.4078 18 17.1818 15.6276 17.1818 12.6C17.1818 10.4607 15.2944 8.58601 12.2566 7.70671Z" fill="#0053F5"/>
</svg>
