<svg width="32" height="28" viewBox="0 0 32 28" fill="none" xmlns="http://www.w3.org/2000/svg">
<path d="M27.5385 1H4.46154C2.54978 1 1 2.54978 1 4.46154V22.9231C1 24.8348 2.54978 26.3846 4.46154 26.3846H27.5385C29.4502 26.3846 31 24.8348 31 22.9231V4.46154C31 2.54978 29.4502 1 27.5385 1Z" stroke="#B2B2B2" stroke-width="1" stroke-linejoin="round"/>
<path d="M21.7686 10.2307C23.0431 10.2307 24.0763 9.19755 24.0763 7.92305C24.0763 6.64855 23.0431 5.61536 21.7686 5.61536C20.4941 5.61536 19.4609 6.64855 19.4609 7.92305C19.4609 9.19755 20.4941 10.2307 21.7686 10.2307Z" stroke="#B2B2B2" stroke-width="1" stroke-miterlimit="10"/>
<path d="M19.4615 19.4463L12.9236 12.9206C12.5075 12.5047 11.9483 12.2633 11.3603 12.2459C10.7723 12.2285 10.1998 12.4363 9.75986 12.8268L1 20.6153" stroke="#B2B2B2" stroke-width="1" stroke-linecap="round" stroke-linejoin="round"/>
<path d="M13.6914 26.3846L22.5861 17.4899C22.9929 17.0823 23.5374 16.8415 24.1126 16.8149C24.6878 16.7882 25.2522 16.9775 25.695 17.3457L30.9991 21.7693" stroke="#B2B2B2" stroke-width="1" stroke-linecap="round" stroke-linejoin="round"/>
</svg>
