<svg width="24" height="18" viewBox="0 0 24 18" fill="none" xmlns="http://www.w3.org/2000/svg">
<path d="M6.78845 17.2106C8.06742 17.2106 9.10424 16.1737 9.10424 14.8948C9.10424 13.6158 8.06742 12.579 6.78845 12.579C5.50947 12.579 4.47266 13.6158 4.47266 14.8948C4.47266 16.1737 5.50947 17.2106 6.78845 17.2106Z" stroke="#7D7C82" stroke-width="1.5" stroke-linecap="round" stroke-linejoin="round"/>
<path d="M18.3705 17.2104C19.6495 17.2104 20.6863 16.1736 20.6863 14.8946C20.6863 13.6157 19.6495 12.5789 18.3705 12.5789C17.0915 12.5789 16.0547 13.6157 16.0547 14.8946C16.0547 16.1736 17.0915 17.2104 18.3705 17.2104Z" stroke="#7D7C82" stroke-width="1.5" stroke-linecap="round" stroke-linejoin="round"/>
<path d="M4.47368 14.8947H2.15789V10.2632M1 1H13.7368V14.8947M9.10526 14.8947H16.0526M20.6842 14.8947H23V7.94737M23 7.94737H13.7368M23 7.94737L19.5263 2.15789H13.7368" stroke="#7D7C82" stroke-width="1.5" stroke-linecap="round" stroke-linejoin="round"/>
<path d="M2.16016 5.63159H6.79174" stroke="#7D7C82" stroke-width="1.5" stroke-linecap="round" stroke-linejoin="round"/>
</svg>
